<svg xmlns:mydata="http://www.w3.org/2000/svg" mydata:contrastcolor="393b3c" mydata:template="Contrast" mydata:presentation="2.5" mydata:layouttype="undefined" mydata:specialfontid="undefined" mydata:id1="000" mydata:id2="497" mydata:companyname="Online Class Rooms" mydata:companytagline="" version="1.1" xmlns="http://www.w3.org/2000/svg" xmlns:xlink="http://www.w3.org/1999/xlink" viewBox="0 0 550 470"><defs><linearGradient x1="65" y1="235" x2="485" y2="235" gradientUnits="userSpaceOnUse" id="color-112949"><stop offset="0" stop-color="#000"></stop><stop offset="1" stop-color="#000"></stop></linearGradient></defs><g fill="url(#color-112949)" fill-rule="none" stroke="none" stroke-width="1" stroke-linecap="butt" stroke-linejoin="miter" stroke-miterlimit="10" stroke-dasharray="" stroke-dashoffset="0" font-family="none" font-weight="none" font-size="none" text-anchor="none" style="mix-blend-mode: normal"><g data-paper-data="{&quot;isGlobalGroup&quot;:true,&quot;bounds&quot;:{&quot;x&quot;:65,&quot;y&quot;:207.72224705132498,&quot;width&quot;:420,&quot;height&quot;:54.55550589735003}}"><g data-paper-data="{&quot;stacked&quot;:true,&quot;isPrimaryText&quot;:true}" fill-rule="nonzero"><path d="M171.89242,219.20566c0,-3.59164 0.96433,-6.40346 2.89299,-8.43544c1.92866,-2.03198 4.41821,-3.04798 7.46865,-3.04798c1.99754,0 3.79828,0.47725 5.40222,1.43174c1.60394,0.95449 2.82657,2.28537 3.6679,3.99263c0.84133,1.70726 1.26199,3.6433 1.26199,5.80813c0,2.19435 -0.44281,4.15745 -1.32842,5.88931c-0.88561,1.73186 -2.14023,3.04306 -3.76384,3.93359c-1.62362,0.89053 -3.37516,1.3358 -5.25462,1.3358c-2.0369,0 -3.85733,-0.49201 -5.46126,-1.47602c-1.60394,-0.98401 -2.81919,-2.32719 -3.64576,-4.02953c-0.82657,-1.70234 -1.23985,-3.50308 -1.23985,-5.40222zM174.84445,219.24994c0,2.60763 0.70111,4.66176 2.10332,6.16237c1.40222,1.50062 3.16114,2.25093 5.27676,2.25093c2.15499,0 3.92867,-0.75769 5.32104,-2.27307c1.39238,-1.51538 2.08856,-3.66544 2.08856,-6.4502c0,-1.76138 -0.29766,-3.2989 -0.89299,-4.61255c-0.59533,-1.31366 -1.46618,-2.33211 -2.61255,-3.05536c-1.14637,-0.72325 -2.43297,-1.08487 -3.85979,-1.08487c-2.02706,0 -3.77122,0.69619 -5.23248,2.08856c-1.46126,1.39238 -2.19189,3.7171 -2.19189,6.97418z" data-paper-data="{&quot;glyphName&quot;:&quot;O&quot;,&quot;glyphIndex&quot;:0,&quot;firstGlyphOfWord&quot;:true,&quot;word&quot;:1,&quot;line&quot;:1,&quot;firstGlyphOfFirstLine&quot;:true}"></path><path d="M205.69322,229.74443v-21.63842h2.93727l11.36533,16.98896v-16.98896h2.74539v21.63842h-2.93727l-11.36533,-17.00372v17.00372z" data-paper-data="{&quot;glyphName&quot;:&quot;N&quot;,&quot;glyphIndex&quot;:1,&quot;word&quot;:1,&quot;line&quot;:1}"></path><path d="M236.88147,229.74443v-21.63842h2.86347v19.08491h10.65685v2.55351z" data-paper-data="{&quot;glyphName&quot;:&quot;L&quot;,&quot;glyphIndex&quot;:2,&quot;word&quot;:1,&quot;line&quot;:1}"></path><path d="M263.74498,229.74443v-21.63842h2.86347v21.63842z" data-paper-data="{&quot;glyphName&quot;:&quot;I&quot;,&quot;glyphIndex&quot;:3,&quot;word&quot;:1,&quot;line&quot;:1}"></path><path d="M281.07343,229.74443v-21.63842h2.93727l11.36533,16.98896v-16.98896h2.74539v21.63842h-2.93727l-11.36533,-17.00372v17.00372z" data-paper-data="{&quot;glyphName&quot;:&quot;N&quot;,&quot;glyphIndex&quot;:4,&quot;word&quot;:1,&quot;line&quot;:1}"></path><path d="M312.4388,229.74443v-21.63842h15.64579v2.55351h-12.78231v6.62732h11.9705v2.53875h-11.9705v7.36533h13.28416v2.55351z" data-paper-data="{&quot;glyphName&quot;:&quot;E&quot;,&quot;glyphIndex&quot;:5,&quot;lastGlyphOfWord&quot;:true,&quot;word&quot;:1,&quot;line&quot;:1,&quot;lastGlyphOfFirstLine&quot;:true}"></path><path d="M188.15813,254.32202l2.86347,0.72325c-0.60025,2.35179 -1.6802,4.14515 -3.23986,5.38008c-1.55966,1.23493 -3.46618,1.8524 -5.71957,1.8524c-2.33211,0 -4.22879,-0.47479 -5.69005,-1.42436c-1.46126,-0.94957 -2.57319,-2.32473 -3.3358,-4.12547c-0.76261,-1.80074 -1.14391,-3.73432 -1.14391,-5.80075c0,-2.25339 0.43051,-4.21895 1.29152,-5.89669c0.86101,-1.67774 2.0861,-2.95203 3.67528,-3.82289c1.58918,-0.87085 3.33826,-1.30628 5.24724,-1.30628c2.16483,0 3.98525,0.55105 5.46126,1.65314c1.47602,1.10209 2.50431,2.65191 3.08488,4.64945l-2.81919,0.66421c-0.50185,-1.57442 -1.23001,-2.72079 -2.18451,-3.43912c-0.95449,-0.71833 -2.15499,-1.07749 -3.60148,-1.07749c-1.66298,0 -3.0529,0.39852 -4.16975,1.19557c-1.11685,0.79705 -1.9016,1.86716 -2.35425,3.21034c-0.45265,1.34318 -0.67897,2.72817 -0.67897,4.15499c0,1.8401 0.26814,3.4465 0.80443,4.8192c0.53629,1.3727 1.37024,2.39853 2.50185,3.0775c1.13161,0.67897 2.35671,1.01845 3.67528,1.01845c1.60394,0 2.96188,-0.46249 4.07381,-1.38746c1.11193,-0.92497 1.8647,-2.29767 2.25831,-4.11809z" data-paper-data="{&quot;glyphName&quot;:&quot;C&quot;,&quot;glyphIndex&quot;:6,&quot;firstGlyphOfWord&quot;:true,&quot;word&quot;:2,&quot;line&quot;:2,&quot;firstGlyphOfSecondLine&quot;:true}"></path><path d="M203.87772,261.90875v-21.63842h2.86347v19.08491h10.65685v2.55351z" data-paper-data="{&quot;glyphName&quot;:&quot;L&quot;,&quot;glyphIndex&quot;:7,&quot;word&quot;:2,&quot;line&quot;:2}"></path><path d="M227.87776,261.90875l8.30998,-21.63842h3.08488l8.8561,21.63842h-3.262l-2.52399,-6.55352h-9.04799l-2.37639,6.55352zM234.12131,253.02312h7.33581l-2.25831,-5.99263c-0.68881,-1.82042 -1.20049,-3.31612 -1.53506,-4.48709c-0.27552,1.38746 -0.66421,2.76507 -1.16605,4.13285z" data-paper-data="{&quot;glyphName&quot;:&quot;A&quot;,&quot;glyphIndex&quot;:8,&quot;word&quot;:2,&quot;line&quot;:2}"></path><path d="M258.88889,254.95671l2.70111,-0.23616c0.12792,1.08241 0.42559,1.97048 0.89299,2.66421c0.46741,0.69373 1.19311,1.25461 2.17713,1.68266c0.98401,0.42805 2.09102,0.64207 3.32104,0.64207c1.09225,0 2.05658,-0.16236 2.89299,-0.48709c0.83641,-0.32472 1.4588,-0.76999 1.86716,-1.3358c0.40836,-0.56581 0.61255,-1.18327 0.61255,-1.8524c0,-0.67897 -0.1968,-1.27184 -0.59041,-1.7786c-0.3936,-0.50677 -1.04305,-0.93235 -1.94834,-1.27676c-0.58057,-0.22632 -1.8647,-0.57811 -3.85241,-1.05535c-1.9877,-0.47725 -3.38008,-0.92743 -4.17713,-1.35056c-1.03321,-0.54121 -1.8032,-1.21279 -2.30997,-2.01476c-0.50677,-0.80197 -0.76015,-1.69988 -0.76015,-2.69373c0,-1.09225 0.30996,-2.11316 0.92989,-3.06274c0.61993,-0.94957 1.52522,-1.67036 2.71587,-2.16237c1.19065,-0.49201 2.51415,-0.73801 3.97049,-0.73801c1.60394,0 3.01846,0.2583 4.24355,0.77491c1.22509,0.51661 2.16729,1.27676 2.82657,2.28045c0.65929,1.00369 1.01353,2.14023 1.06273,3.4096l-2.74539,0.20664c-0.1476,-1.36778 -0.64699,-2.40099 -1.49816,-3.09964c-0.85117,-0.69865 -2.10824,-1.04797 -3.77122,-1.04797c-1.73186,0 -2.99386,0.31734 -3.78598,0.95203c-0.79213,0.63469 -1.18819,1.39976 -1.18819,2.29521c0,0.77737 0.28044,1.41698 0.84133,1.91882c0.55105,0.50185 1.99016,1.01599 4.31735,1.54244c2.32719,0.52645 3.92375,0.98647 4.78968,1.38008c1.25953,0.58057 2.18943,1.31612 2.78967,2.20665c0.60025,0.89053 0.90037,1.91636 0.90037,3.0775c0,1.15129 -0.32964,2.23617 -0.98893,3.25462c-0.65929,1.01845 -1.6064,1.81058 -2.84133,2.37639c-1.23493,0.56581 -2.62485,0.84871 -4.16975,0.84871c-1.95818,0 -3.59902,-0.28536 -4.92252,-0.85609c-1.3235,-0.57073 -2.36163,-1.42928 -3.1144,-2.57565c-0.75277,-1.14637 -1.14883,-2.44281 -1.18819,-3.88931z" data-paper-data="{&quot;glyphName&quot;:&quot;S&quot;,&quot;glyphIndex&quot;:9,&quot;word&quot;:2,&quot;line&quot;:2}"></path><path d="M288.4978,254.95671l2.70111,-0.23616c0.12792,1.08241 0.42559,1.97048 0.89299,2.66421c0.46741,0.69373 1.19311,1.25461 2.17713,1.68266c0.98401,0.42805 2.09102,0.64207 3.32104,0.64207c1.09225,0 2.05658,-0.16236 2.89299,-0.48709c0.83641,-0.32472 1.4588,-0.76999 1.86716,-1.3358c0.40836,-0.56581 0.61255,-1.18327 0.61255,-1.8524c0,-0.67897 -0.1968,-1.27184 -0.59041,-1.7786c-0.3936,-0.50677 -1.04305,-0.93235 -1.94834,-1.27676c-0.58057,-0.22632 -1.8647,-0.57811 -3.85241,-1.05535c-1.9877,-0.47725 -3.38008,-0.92743 -4.17713,-1.35056c-1.03321,-0.54121 -1.8032,-1.21279 -2.30997,-2.01476c-0.50677,-0.80197 -0.76015,-1.69988 -0.76015,-2.69373c0,-1.09225 0.30996,-2.11316 0.92989,-3.06274c0.61993,-0.94957 1.52522,-1.67036 2.71587,-2.16237c1.19065,-0.49201 2.51415,-0.73801 3.97049,-0.73801c1.60394,0 3.01846,0.2583 4.24355,0.77491c1.22509,0.51661 2.16729,1.27676 2.82657,2.28045c0.65929,1.00369 1.01353,2.14023 1.06273,3.4096l-2.74539,0.20664c-0.1476,-1.36778 -0.64699,-2.40099 -1.49816,-3.09964c-0.85117,-0.69865 -2.10824,-1.04797 -3.77122,-1.04797c-1.73186,0 -2.99386,0.31734 -3.78598,0.95203c-0.79213,0.63469 -1.18819,1.39976 -1.18819,2.29521c0,0.77737 0.28044,1.41698 0.84133,1.91882c0.55105,0.50185 1.99016,1.01599 4.31735,1.54244c2.32719,0.52645 3.92375,0.98647 4.78968,1.38008c1.25953,0.58057 2.18943,1.31612 2.78967,2.20665c0.60025,0.89053 0.90037,1.91636 0.90037,3.0775c0,1.15129 -0.32964,2.23617 -0.98893,3.25462c-0.65929,1.01845 -1.6064,1.81058 -2.84133,2.37639c-1.23493,0.56581 -2.62485,0.84871 -4.16975,0.84871c-1.95818,0 -3.59902,-0.28536 -4.92252,-0.85609c-1.3235,-0.57073 -2.36163,-1.42928 -3.1144,-2.57565c-0.75277,-1.14637 -1.14883,-2.44281 -1.18819,-3.88931z" data-paper-data="{&quot;glyphName&quot;:&quot;S&quot;,&quot;glyphIndex&quot;:10,&quot;lastGlyphOfWord&quot;:true,&quot;word&quot;:2,&quot;line&quot;:2}"></path><path d="M336.97021,261.90875v-21.63842h9.59411c1.92866,0 3.39484,0.19434 4.39853,0.58303c1.00369,0.38868 1.80566,1.07503 2.40591,2.05904c0.60025,0.98401 0.90037,2.07134 0.90037,3.262c0,1.53506 -0.49693,2.82903 -1.49078,3.88193c-0.99385,1.05289 -2.52891,1.72202 -4.60517,2.00738c0.75769,0.36408 1.33334,0.72325 1.72694,1.07749c0.83641,0.76753 1.62854,1.72694 2.37639,2.87823l3.76384,5.88931h-3.60148l-2.86347,-4.50185c-0.83641,-1.2989 -1.52522,-2.29275 -2.06642,-2.98156c-0.54121,-0.68881 -1.02583,-1.17097 -1.45388,-1.4465c-0.42805,-0.27552 -0.86347,-0.46741 -1.30628,-0.57565c-0.32472,-0.06888 -0.85609,-0.10332 -1.5941,-0.10332h-3.32104v9.60887zM339.83368,249.82017h6.15499c1.30874,0 2.33211,-0.1353 3.07012,-0.4059c0.73801,-0.2706 1.2989,-0.70357 1.68266,-1.2989c0.38376,-0.59533 0.57565,-1.24231 0.57565,-1.94096c0,-1.02337 -0.37146,-1.8647 -1.11439,-2.52399c-0.74293,-0.65929 -1.91636,-0.98893 -3.5203,-0.98893h-6.84872z" data-paper-data="{&quot;glyphName&quot;:&quot;R&quot;,&quot;glyphIndex&quot;:11,&quot;firstGlyphOfWord&quot;:true,&quot;word&quot;:2,&quot;line&quot;:2}"></path><path d="M367.33189,251.36998c0,-3.59164 0.96433,-6.40346 2.89299,-8.43544c1.92866,-2.03198 4.41821,-3.04798 7.46865,-3.04798c1.99754,0 3.79828,0.47725 5.40222,1.43174c1.60394,0.95449 2.82657,2.28537 3.6679,3.99263c0.84133,1.70726 1.26199,3.6433 1.26199,5.80813c0,2.19435 -0.44281,4.15745 -1.32842,5.88931c-0.88561,1.73186 -2.14023,3.04306 -3.76384,3.93359c-1.62362,0.89053 -3.37516,1.3358 -5.25462,1.3358c-2.0369,0 -3.85733,-0.49201 -5.46126,-1.47602c-1.60394,-0.98401 -2.81919,-2.32719 -3.64576,-4.02953c-0.82657,-1.70234 -1.23985,-3.50308 -1.23985,-5.40222zM370.28392,251.41426c0,2.60763 0.70111,4.66176 2.10332,6.16237c1.40222,1.50062 3.16114,2.25093 5.27676,2.25093c2.15499,0 3.92867,-0.75769 5.32104,-2.27307c1.39238,-1.51538 2.08856,-3.66544 2.08856,-6.4502c0,-1.76138 -0.29766,-3.2989 -0.89299,-4.61255c-0.59533,-1.31366 -1.46618,-2.33211 -2.61255,-3.05536c-1.14637,-0.72325 -2.43297,-1.08487 -3.85979,-1.08487c-2.02706,0 -3.77122,0.69619 -5.23248,2.08856c-1.46126,1.39238 -2.19189,3.7171 -2.19189,6.97418z" data-paper-data="{&quot;glyphName&quot;:&quot;O&quot;,&quot;glyphIndex&quot;:12,&quot;word&quot;:2,&quot;line&quot;:2}"></path><path d="M400.29136,251.36998c0,-3.59164 0.96433,-6.40346 2.89299,-8.43544c1.92866,-2.03198 4.41821,-3.04798 7.46865,-3.04798c1.99754,0 3.79828,0.47725 5.40222,1.43174c1.60394,0.95449 2.82657,2.28537 3.6679,3.99263c0.84133,1.70726 1.26199,3.6433 1.26199,5.80813c0,2.19435 -0.44281,4.15745 -1.32842,5.88931c-0.88561,1.73186 -2.14023,3.04306 -3.76384,3.93359c-1.62362,0.89053 -3.37516,1.3358 -5.25462,1.3358c-2.0369,0 -3.85733,-0.49201 -5.46126,-1.47602c-1.60394,-0.98401 -2.81919,-2.32719 -3.64576,-4.02953c-0.82657,-1.70234 -1.23985,-3.50308 -1.23985,-5.40222zM403.24339,251.41426c0,2.60763 0.70111,4.66176 2.10332,6.16237c1.40222,1.50062 3.16114,2.25093 5.27676,2.25093c2.15499,0 3.92867,-0.75769 5.32104,-2.27307c1.39238,-1.51538 2.08856,-3.66544 2.08856,-6.4502c0,-1.76138 -0.29766,-3.2989 -0.89299,-4.61255c-0.59533,-1.31366 -1.46618,-2.33211 -2.61255,-3.05536c-1.14637,-0.72325 -2.43297,-1.08487 -3.85979,-1.08487c-2.02706,0 -3.77122,0.69619 -5.23248,2.08856c-1.46126,1.39238 -2.19189,3.7171 -2.19189,6.97418z" data-paper-data="{&quot;glyphName&quot;:&quot;O&quot;,&quot;glyphIndex&quot;:13,&quot;word&quot;:2,&quot;line&quot;:2}"></path><path d="M434.03312,261.90875v-21.63842h4.30997l5.12178,15.32106c0.47233,1.42682 0.81673,2.49447 1.03321,3.20296c0.246,-0.78721 0.62977,-1.94342 1.15129,-3.46864l5.18082,-15.05538h3.85241v21.63842h-2.76015v-18.11073l-6.28783,18.11073h-2.58303l-6.25831,-18.4207v18.4207z" data-paper-data="{&quot;glyphName&quot;:&quot;M&quot;,&quot;glyphIndex&quot;:14,&quot;word&quot;:2,&quot;line&quot;:2}"></path><path d="M467.77488,254.95671l2.70111,-0.23616c0.12792,1.08241 0.42559,1.97048 0.89299,2.66421c0.46741,0.69373 1.19311,1.25461 2.17713,1.68266c0.98401,0.42805 2.09102,0.64207 3.32104,0.64207c1.09225,0 2.05658,-0.16236 2.89299,-0.48709c0.83641,-0.32472 1.4588,-0.76999 1.86716,-1.3358c0.40836,-0.56581 0.61255,-1.18327 0.61255,-1.8524c0,-0.67897 -0.1968,-1.27184 -0.59041,-1.7786c-0.3936,-0.50677 -1.04305,-0.93235 -1.94834,-1.27676c-0.58057,-0.22632 -1.8647,-0.57811 -3.85241,-1.05535c-1.9877,-0.47725 -3.38008,-0.92743 -4.17713,-1.35056c-1.03321,-0.54121 -1.8032,-1.21279 -2.30997,-2.01476c-0.50677,-0.80197 -0.76015,-1.69988 -0.76015,-2.69373c0,-1.09225 0.30996,-2.11316 0.92989,-3.06274c0.61993,-0.94957 1.52522,-1.67036 2.71587,-2.16237c1.19065,-0.49201 2.51415,-0.73801 3.97049,-0.73801c1.60394,0 3.01846,0.2583 4.24355,0.77491c1.22509,0.51661 2.16729,1.27676 2.82657,2.28045c0.65929,1.00369 1.01353,2.14023 1.06273,3.4096l-2.74539,0.20664c-0.1476,-1.36778 -0.64699,-2.40099 -1.49816,-3.09964c-0.85117,-0.69865 -2.10824,-1.04797 -3.77122,-1.04797c-1.73186,0 -2.99386,0.31734 -3.78598,0.95203c-0.79213,0.63469 -1.18819,1.39976 -1.18819,2.29521c0,0.77737 0.28044,1.41698 0.84133,1.91882c0.55105,0.50185 1.99016,1.01599 4.31735,1.54244c2.32719,0.52645 3.92375,0.98647 4.78968,1.38008c1.25953,0.58057 2.18943,1.31612 2.78967,2.20665c0.60025,0.89053 0.90037,1.91636 0.90037,3.0775c0,1.15129 -0.32964,2.23617 -0.98893,3.25462c-0.65929,1.01845 -1.6064,1.81058 -2.84133,2.37639c-1.23493,0.56581 -2.62485,0.84871 -4.16975,0.84871c-1.95818,0 -3.59902,-0.28536 -4.92252,-0.85609c-1.3235,-0.57073 -2.36163,-1.42928 -3.1144,-2.57565c-0.75277,-1.14637 -1.14883,-2.44281 -1.18819,-3.88931z" data-paper-data="{&quot;glyphName&quot;:&quot;S&quot;,&quot;glyphIndex&quot;:15,&quot;lastGlyphOfWord&quot;:true,&quot;word&quot;:2,&quot;line&quot;:2,&quot;lastGlyphOfSecondLine&quot;:true}"></path></g><g data-paper-data="{&quot;fillRule&quot;:&quot;evenodd&quot;,&quot;fillRuleOriginal&quot;:&quot;evenodd&quot;,&quot;isIcon&quot;:true,&quot;iconStyle&quot;:&quot;standalone&quot;,&quot;selectedEffects&quot;:{&quot;container&quot;:&quot;&quot;,&quot;transformation&quot;:&quot;&quot;,&quot;pattern&quot;:&quot;&quot;},&quot;bounds&quot;:{&quot;x&quot;:65,&quot;y&quot;:208.72243132610973,&quot;width&quot;:79.95707327040023,&quot;height&quot;:52.55513734778057},&quot;iconType&quot;:&quot;icon&quot;,&quot;rawIconId&quot;:&quot;200766&quot;,&quot;combineTerms&quot;:&quot;education &quot;,&quot;isDetailed&quot;:false,&quot;suitableAsStandaloneIcon&quot;:true}" fill-rule="evenodd"><path d="M65,229.61682l39.927,-20.89439l40.03007,20.84041l-6.00086,3.2311v8.30206c1.82526,0.46283 2.73789,1.8383 2.73789,4.12639c0,2.86826 -1.43413,4.30239 -4.30239,4.30239c-2.86826,0 -4.30239,-1.43413 -4.30239,-4.30239c0,-2.73476 1.30376,-4.16576 3.91127,-4.29301v-7.08233l-29.69924,15.99181l-21.14725,-10.10926v12.11359c2.94271,2.74792 6.73651,4.82475 11.3814,6.23046c9.57869,2.89877 18.87852,0.70814 27.89947,-6.57191l1.22814,1.52187c-9.55757,7.71315 -19.45556,10.02047 -29.69395,6.92197c-5.10551,-1.54508 -9.26319,-3.87189 -12.47303,-6.98044l-0.29765,-0.28826v-13.88226l-17.43575,-8.33511zM107.24854,247.6462l-37.87965,-18.10839l35.56046,-18.60942l35.84853,18.6634zM137.3917,242.87563c1.56451,0 2.34676,0.78225 2.34676,2.34676c0,1.56451 -0.78225,2.34676 -2.34676,2.34676c-1.56451,0 -2.34676,-0.78225 -2.34676,-2.34676c0,-1.56451 0.78225,-2.34676 2.34676,-2.34676z" data-paper-data="{&quot;isPathIcon&quot;:true}"></path></g></g></g></svg>